<svg width="102" height="28" viewBox="0 0 102 28" fill="none" xmlns="http://www.w3.org/2000/svg">
<path d="M26 14.0002C26 6.82034 20.1799 1.00027 13 1.00027L3.9 1.00027C2.86566 1.00027 1.87368 1.41116 1.14228 2.14254C0.410892 2.87393 0 3.86591 0 4.90025L0 13.3502H5.7031C7.0044 13.3502 8.3525 13.2709 9.4601 12.5884C10.2539 12.0998 10.9333 11.4462 11.4522 10.6719C11.9711 9.89761 12.3175 9.02075 12.4676 8.10083L12.5079 7.85188C12.543 7.74925 12.6093 7.66016 12.6976 7.59707C12.7858 7.53399 12.8915 7.50007 13 7.50007C13.1085 7.50007 13.2142 7.53399 13.3024 7.59707C13.3907 7.66016 13.457 7.74925 13.492 7.85188L13.5323 8.10083C13.7519 9.44491 14.3881 10.6861 15.3511 11.6491C16.3141 12.6121 17.5553 13.2483 18.8994 13.4679L19.1483 13.5082C19.251 13.5432 19.3401 13.6095 19.4032 13.6978C19.4662 13.786 19.5002 13.8917 19.5002 14.0002C19.5002 14.1087 19.4662 14.2144 19.4032 14.3026C19.3401 14.3909 19.251 14.4572 19.1483 14.4922L18.8994 14.5325C17.9795 14.6828 17.1026 15.0291 16.3284 15.548C15.5541 16.0669 14.9004 16.7463 14.4118 17.5401C13.7293 18.6477 13.65 19.9958 13.65 21.2971L13.65 26.9845C20.5276 26.6446 26 20.9617 26 14.0002Z" fill="url(#paint0_linear_3371_1129)"/>
<path d="M12.35 27V21.2969C12.35 19.9956 12.2707 18.6475 11.5882 17.54C11.0547 16.6741 10.3259 15.9453 9.4601 15.4119C8.3525 14.7294 7.0044 14.6501 5.7031 14.6501H0L0 23.1C0 24.1344 0.410892 25.1263 1.14228 25.8577C1.87368 26.5891 2.86566 27 3.9 27H12.35Z" fill="url(#paint1_linear_3371_1129)"/>
<path d="M38.068 22V6.6H44.25C45.3647 6.6 46.3693 6.78333 47.264 7.15C48.1733 7.51667 48.9507 8.04467 49.596 8.734C50.256 9.42333 50.7547 10.2373 51.092 11.176C51.444 12.1147 51.62 13.156 51.62 14.3C51.62 15.444 51.444 16.4927 51.092 17.446C50.7547 18.3847 50.2633 19.1987 49.618 19.888C48.9727 20.5627 48.1953 21.0833 47.286 21.45C46.3767 21.8167 45.3647 22 44.25 22H38.068ZM40.928 19.778L40.708 19.36H44.14C44.8587 19.36 45.4967 19.2427 46.054 19.008C46.626 18.7733 47.11 18.436 47.506 17.996C47.902 17.556 48.2027 17.028 48.408 16.412C48.6133 15.7813 48.716 15.0773 48.716 14.3C48.716 13.5227 48.6133 12.826 48.408 12.21C48.2027 11.5793 47.8947 11.044 47.484 10.604C47.088 10.164 46.6113 9.82667 46.054 9.592C45.4967 9.35733 44.8587 9.24 44.14 9.24H40.642L40.928 8.866V19.778ZM58.2604 22.22C57.4244 22.22 56.6984 22.0367 56.0824 21.67C55.4664 21.2887 54.9971 20.7533 54.6744 20.064C54.3517 19.36 54.1904 18.524 54.1904 17.556V10.406H56.8964V16.984C56.8964 17.6 56.9917 18.128 57.1824 18.568C57.3731 18.9933 57.6517 19.3233 58.0184 19.558C58.3851 19.7927 58.8251 19.91 59.3384 19.91C59.7197 19.91 60.0644 19.8513 60.3724 19.734C60.6951 19.602 60.9737 19.426 61.2084 19.206C61.4431 18.9713 61.6264 18.7 61.7584 18.392C61.8904 18.0693 61.9564 17.7247 61.9564 17.358V10.406H64.6624V22H62.0224L61.9784 19.58L62.4624 19.316C62.2864 19.8733 61.9857 20.372 61.5604 20.812C61.1497 21.2373 60.6584 21.582 60.0864 21.846C59.5144 22.0953 58.9057 22.22 58.2604 22.22ZM71.86 22.22C71.024 22.22 70.298 22.0367 69.682 21.67C69.066 21.2887 68.5967 20.7533 68.274 20.064C67.9513 19.36 67.79 18.524 67.79 17.556V10.406H70.496V16.984C70.496 17.6 70.5913 18.128 70.782 18.568C70.9727 18.9933 71.2513 19.3233 71.618 19.558C71.9847 19.7927 72.4247 19.91 72.938 19.91C73.3193 19.91 73.664 19.8513 73.972 19.734C74.2947 19.602 74.5733 19.426 74.808 19.206C75.0427 18.9713 75.226 18.7 75.358 18.392C75.49 18.0693 75.556 17.7247 75.556 17.358V10.406H78.262V22H75.622L75.578 19.58L76.062 19.316C75.886 19.8733 75.5853 20.372 75.16 20.812C74.7493 21.2373 74.258 21.582 73.686 21.846C73.114 22.0953 72.5053 22.22 71.86 22.22ZM82.6876 22V7.458H85.3936V22H82.6876ZM80.3996 12.914V10.406H87.9236V12.914H80.3996ZM91.7444 27.06L94.2084 21.362L94.2304 23.166L88.5104 10.406H91.6344L94.8244 17.974C94.9271 18.1647 95.0297 18.4213 95.1324 18.744C95.2351 19.052 95.3231 19.36 95.3964 19.668L94.8464 19.844C94.9491 19.5653 95.0591 19.272 95.1764 18.964C95.2937 18.6413 95.4037 18.3113 95.5064 17.974L98.2344 10.406H101.38L96.5404 22L94.5604 27.06H91.7444Z" fill="#3C31FF"/>
<defs>
<linearGradient id="paint0_linear_3371_1129" x1="0" y1="13.9924" x2="26" y2="13.9924" gradientUnits="userSpaceOnUse">
<stop stop-color="#3B31FF"/>
<stop offset="1" stop-color="#9239FF"/>
</linearGradient>
<linearGradient id="paint1_linear_3371_1129" x1="0" y1="20.825" x2="12.35" y2="20.825" gradientUnits="userSpaceOnUse">
<stop stop-color="#3B31FF"/>
<stop offset="1" stop-color="#9239FF"/>
</linearGradient>
</defs>
</svg>
