<svg width="1458" height="1483" viewBox="0 0 1458 1483" fill="none" xmlns="http://www.w3.org/2000/svg">
<g clip-path="url(#clip0_3414_782)">
<path d="M53 1483C72.33 1483 88 1467.33 88 1448C88 1428.67 72.33 1413 53 1413C33.67 1413 18 1428.67 18 1448C18 1467.33 33.67 1483 53 1483Z" fill="url(#paint0_linear_3414_782)"/>
<path d="M70.6108 1436.99C71.3021 1438.19 71.2095 1439.61 70.368 1440.71L51.8942 1464.82C51.1324 1465.81 49.8779 1466.32 48.5951 1466.07C47.339 1465.83 46.343 1464.92 45.9973 1463.68L43.2638 1453.96L42.9792 1452.94L42.2452 1452.19L35.1867 1444.96C34.293 1444.04 33.998 1442.72 34.4169 1441.52C34.8314 1440.32 35.8711 1439.45 37.153 1439.29L67.2673 1435.34C68.6384 1435.16 69.9195 1435.79 70.6108 1436.99Z" fill="white"/>
<path d="M43.2632 1453.96L45.9966 1463.68C46.3423 1464.92 47.3382 1465.83 48.5944 1466.07C49.8772 1466.32 51.1317 1465.81 51.8935 1464.82L70.3673 1440.71C71.2088 1439.61 71.3014 1438.19 70.6101 1436.99L42.9785 1452.94L43.2632 1453.96Z" fill="white"/>
<path d="M54.2234 1446.45C54.5045 1446.94 54.3381 1447.56 53.8505 1447.84L43.2638 1453.96L42.9791 1452.94L42.2451 1452.19L52.8318 1446.08C53.3194 1445.8 53.9422 1445.96 54.2234 1446.45Z" fill="url(#paint1_linear_3414_782)"/>
<path d="M43.2631 1453.96L53.8499 1447.84C54.3374 1447.56 54.5039 1446.94 54.2227 1446.45L42.9785 1452.94L43.2631 1453.96Z" fill="url(#paint2_linear_3414_782)"/>
</g>
<path d="M11.5586 152.61V154.479H0.837891V152.61H11.5586ZM7.19727 148.045V159.432H5.20996V148.045H7.19727Z" fill="#6246E5"/>
<path d="M46.5586 117.61V119.479H35.8379V117.61H46.5586ZM42.1973 113.045V124.432H40.21V113.045H42.1973Z" fill="#6246E5"/>
<path d="M46.5586 152.61V154.479H35.8379V152.61H46.5586ZM42.1973 148.045V159.432H40.21V148.045H42.1973Z" fill="#6246E5"/>
<path d="M81.5586 12.6104V14.4795H70.8379V12.6104H81.5586ZM77.1973 8.04492V19.4316H75.21V8.04492H77.1973Z" fill="#6246E5"/>
<path d="M81.5586 47.6104V49.4795H70.8379V47.6104H81.5586ZM77.1973 43.0449V54.4316H75.21V43.0449H77.1973Z" fill="#6246E5"/>
<path d="M81.5586 82.6104V84.4795H70.8379V82.6104H81.5586ZM77.1973 78.0449V89.4316H75.21V78.0449H77.1973Z" fill="#6246E5"/>
<path d="M81.5586 117.61V119.479H70.8379V117.61H81.5586ZM77.1973 113.045V124.432H75.21V113.045H77.1973Z" fill="#6246E5"/>
<path d="M81.5586 152.61V154.479H70.8379V152.61H81.5586ZM77.1973 148.045V159.432H75.21V148.045H77.1973Z" fill="#6246E5"/>
<path d="M116.559 12.6104V14.4795H105.838V12.6104H116.559ZM112.197 8.04492V19.4316H110.21V8.04492H112.197Z" fill="#6246E5"/>
<path d="M116.559 47.6104V49.4795H105.838V47.6104H116.559ZM112.197 43.0449V54.4316H110.21V43.0449H112.197Z" fill="#6246E5"/>
<path d="M116.559 82.6104V84.4795H105.838V82.6104H116.559ZM112.197 78.0449V89.4316H110.21V78.0449H112.197Z" fill="#6246E5"/>
<path d="M116.559 117.61V119.479H105.838V117.61H116.559ZM112.197 113.045V124.432H110.21V113.045H112.197Z" fill="#6246E5"/>
<path d="M116.559 152.61V154.479H105.838V152.61H116.559ZM112.197 148.045V159.432H110.21V148.045H112.197Z" fill="#6246E5"/>
<path d="M151.559 12.6104V14.4795H140.838V12.6104H151.559ZM147.197 8.04492V19.4316H145.21V8.04492H147.197Z" fill="#6246E5"/>
<path d="M151.559 47.6104V49.4795H140.838V47.6104H151.559ZM147.197 43.0449V54.4316H145.21V43.0449H147.197Z" fill="#6246E5"/>
<path d="M151.559 82.6104V84.4795H140.838V82.6104H151.559ZM147.197 78.0449V89.4316H145.21V78.0449H147.197Z" fill="#6246E5"/>
<path d="M151.559 117.61V119.479H140.838V117.61H151.559ZM147.197 113.045V124.432H145.21V113.045H147.197Z" fill="#6246E5"/>
<path d="M151.559 152.61V154.479H140.838V152.61H151.559ZM147.197 148.045V159.432H145.21V148.045H147.197Z" fill="#6246E5"/>
<path d="M25.1973 415.61H29.5586V417.49H25.1973V422.432H23.1992V417.49H18.8379V415.61H23.1992V411.045H25.1973V415.61Z" fill="#E5E5E5"/>
<path d="M60.1973 380.61H64.5586V382.49H60.1973V387.432H58.1992V382.49H53.8379V380.61H58.1992V376.045H60.1973V380.61Z" fill="#E5E5E5"/>
<path d="M95.1973 275.61H99.5586V277.49H95.1973V282.432H93.1992V277.49H88.8379V275.61H93.1992V271.045H95.1973V275.61Z" fill="#E5E5E5"/>
<path d="M95.1973 310.61H99.5586V312.49H95.1973V317.432H93.1992V312.49H88.8379V310.61H93.1992V306.045H95.1973V310.61Z" fill="#E5E5E5"/>
<path d="M95.1973 345.61H99.5586V347.49H95.1973V352.432H93.1992V347.49H88.8379V345.61H93.1992V341.045H95.1973V345.61Z" fill="#6246E5"/>
<path d="M95.1973 380.61H99.5586V382.49H95.1973V387.432H93.1992V382.49H88.8379V380.61H93.1992V376.045H95.1973V380.61Z" fill="#E5E5E5"/>
<path d="M95.1973 415.61H99.5586V417.49H95.1973V422.432H93.1992V417.49H88.8379V415.61H93.1992V411.045H95.1973V415.61Z" fill="#E5E5E5"/>
<path d="M130.197 275.61H134.559V277.49H130.197V282.432H128.199V277.49H123.838V275.61H128.199V271.045H130.197V275.61Z" fill="#E5E5E5"/>
<path d="M130.197 310.61H134.559V312.49H130.197V317.432H128.199V312.49H123.838V310.61H128.199V306.045H130.197V310.61Z" fill="#E5E5E5"/>
<path d="M130.197 345.61H134.559V347.49H130.197V352.432H128.199V347.49H123.838V345.61H128.199V341.045H130.197V345.61Z" fill="#E5E5E5"/>
<path d="M130.197 380.61H134.559V382.49H130.197V387.432H128.199V382.49H123.838V380.61H128.199V376.045H130.197V380.61Z" fill="#E5E5E5"/>
<path d="M130.197 415.61H134.559V417.49H130.197V422.432H128.199V417.49H123.838V415.61H128.199V411.045H130.197V415.61Z" fill="#E5E5E5"/>
<path d="M169.559 275.61V277.48H158.838V275.61H169.559ZM165.197 271.045V282.432H163.21V271.045H165.197Z" fill="#8D39FF"/>
<path d="M165.197 310.61H169.559V312.49H165.197V317.432H163.199V312.49H158.838V310.61H163.199V306.045H165.197V310.61Z" fill="#E5E5E5"/>
<path d="M165.197 345.61H169.559V347.49H165.197V352.432H163.199V347.49H158.838V345.61H163.199V341.045H165.197V345.61Z" fill="#E5E5E5"/>
<path d="M165.197 380.61H169.559V382.49H165.197V387.432H163.199V382.49H158.838V380.61H163.199V376.045H165.197V380.61Z" fill="#E5E5E5"/>
<path d="M165.197 415.61H169.559V417.49H165.197V422.432H163.199V417.49H158.838V415.61H163.199V411.045H165.197V415.61Z" fill="#E5E5E5"/>
<g clip-path="url(#clip1_3414_782)">
<mask id="mask0_3414_782" style="mask-type:alpha" maskUnits="userSpaceOnUse" x="18" y="525" width="1440" height="297">
<path d="M1458 525H18V822H1458V525Z" fill="url(#paint3_linear_3414_782)"/>
</mask>
<g mask="url(#mask0_3414_782)">
<path d="M1437 626C1480.08 626 1515 591.078 1515 548C1515 504.922 1480.08 470 1437 470C1393.92 470 1359 504.922 1359 548C1359 591.078 1393.92 626 1437 626Z" stroke="#232962" stroke-width="10"/>
<path d="M1458 697C1501.08 697 1536 662.078 1536 619C1536 575.922 1501.08 541 1458 541C1414.92 541 1380 575.922 1380 619C1380 662.078 1414.92 697 1458 697Z" stroke="#232962" stroke-width="10"/>
</g>
</g>
<g opacity="0.1">
<mask id="mask1_3414_782" style="mask-type:alpha" maskUnits="userSpaceOnUse" x="18" y="947" width="480" height="361">
<g opacity="0.1">
<path d="M497.5 1307.5V947.5H18.5V1307.5H497.5Z" fill="url(#paint4_linear_3414_782)" stroke="#6246E5"/>
</g>
</mask>
<g mask="url(#mask1_3414_782)">
<path d="M254.504 1400.92C185.172 1400.92 128.965 1344.63 128.965 1275.2C128.965 1205.77 185.172 1149.48 254.505 1149.48C323.837 1149.48 380.044 1205.77 380.044 1275.2C380.044 1344.63 323.837 1400.92 254.504 1400.92Z" stroke="#6246E5"/>
<path d="M267.773 1405.9C190.197 1405.9 127.308 1342.93 127.308 1265.24C127.308 1187.55 190.197 1124.57 267.773 1124.57C345.349 1124.57 408.238 1187.55 408.238 1265.24C408.238 1342.93 345.349 1405.9 267.773 1405.9Z" stroke="#6246E5"/>
<path d="M278.552 1410.88C193.648 1410.88 124.819 1341.96 124.819 1256.93C124.819 1171.91 193.648 1102.98 278.552 1102.98C363.455 1102.98 432.284 1171.91 432.284 1256.93C432.284 1341.96 363.455 1410.88 278.552 1410.88Z" stroke="#6246E5"/>
<path d="M294.308 1414.21C202.993 1414.21 128.967 1340.08 128.967 1248.63C128.967 1157.18 202.993 1083.05 294.308 1083.05C385.623 1083.05 459.649 1157.18 459.649 1248.63C459.649 1340.08 385.623 1414.21 294.308 1414.21Z" stroke="#6246E5"/>
<path d="M309.647 1417.53C212.15 1417.53 133.111 1338.38 133.111 1240.74C133.111 1143.1 212.15 1063.96 309.647 1063.96C407.144 1063.96 486.183 1143.1 486.183 1240.74C486.183 1338.38 407.144 1417.53 309.647 1417.53Z" stroke="#6246E5"/>
<path d="M327.061 1421.68C219.946 1421.68 133.112 1334.72 133.112 1227.46C133.112 1120.19 219.946 1033.23 327.061 1033.23C434.175 1033.23 521.01 1120.19 521.01 1227.46C521.01 1334.72 434.175 1421.68 327.061 1421.68Z" stroke="#6246E5"/>
</g>
</g>
<defs>
<linearGradient id="paint0_linear_3414_782" x1="18.9929" y1="1420" x2="88.3198" y2="1420.42" gradientUnits="userSpaceOnUse">
<stop stop-color="#3B31FF"/>
<stop offset="1" stop-color="#9239FF"/>
</linearGradient>
<linearGradient id="paint1_linear_3414_782" x1="50.4079" y1="1447.54" x2="51.5455" y2="1449.82" gradientUnits="userSpaceOnUse">
<stop stop-color="#747DEF"/>
<stop offset="1" stop-color="#5E3BE1"/>
</linearGradient>
<linearGradient id="paint2_linear_3414_782" x1="50.9023" y1="1448.4" x2="51.5064" y2="1449.53" gradientUnits="userSpaceOnUse">
<stop stop-color="#747DEF"/>
<stop offset="1" stop-color="#5E3BE1"/>
</linearGradient>
<linearGradient id="paint3_linear_3414_782" x1="18" y1="673.5" x2="1458" y2="673.5" gradientUnits="userSpaceOnUse">
<stop stop-color="#15193F"/>
<stop offset="1" stop-color="#3741A5"/>
</linearGradient>
<linearGradient id="paint4_linear_3414_782" x1="484.533" y1="1204.04" x2="13.934" y2="955.704" gradientUnits="userSpaceOnUse">
<stop stop-color="#747DEF"/>
<stop offset="1" stop-color="#5E3BE1"/>
</linearGradient>
<clipPath id="clip0_3414_782">
<rect width="70" height="70" fill="white" transform="translate(18 1413)"/>
</clipPath>
<clipPath id="clip1_3414_782">
<rect width="1440" height="297" fill="white" transform="translate(18 525)"/>
</clipPath>
</defs>
</svg>
