<svg width="438" height="361" viewBox="0 0 438 361" fill="none" xmlns="http://www.w3.org/2000/svg">
<g opacity="0.1">
<mask id="mask0_3451_750" style="mask-type:alpha" maskUnits="userSpaceOnUse" x="-42" y="0" width="480" height="361">
<rect x="437.5" y="0.5" width="360" height="479" transform="rotate(90 437.5 0.5)" fill="url(#paint0_linear_3451_750)" stroke="#6246E5"/>
</mask>
<g mask="url(#mask0_3451_750)">
<path d="M320.044 328.202C320.044 397.635 263.838 453.92 194.505 453.92C125.172 453.92 68.9648 397.635 68.9648 328.202C68.9649 258.769 125.172 202.484 194.505 202.484C263.838 202.485 320.044 258.77 320.044 328.202Z" stroke="#6246E5"/>
<path d="M348.237 318.238C348.237 395.925 285.348 458.902 207.772 458.902C130.196 458.902 67.3068 395.925 67.3066 318.238C67.3066 240.55 130.196 177.573 207.772 177.573C285.348 177.573 348.237 240.55 348.237 318.238Z" stroke="#6246E5"/>
<path d="M372.284 309.935C372.284 394.96 303.455 463.885 218.552 463.885C133.648 463.885 64.8196 394.96 64.8193 309.935C64.8193 224.909 133.648 155.983 218.552 155.983C303.455 155.983 372.284 224.909 372.284 309.935Z" stroke="#6246E5"/>
<path d="M399.648 301.63C399.648 393.076 325.621 467.207 234.307 467.207C142.992 467.206 68.9659 393.076 68.9658 301.63C68.9658 210.185 142.992 136.054 234.307 136.054C325.621 136.054 399.648 210.185 399.648 301.63Z" stroke="#6246E5"/>
<path d="M426.183 293.741C426.183 391.378 347.144 470.527 249.646 470.527C152.149 470.527 73.1113 391.378 73.1113 293.741C73.1114 196.104 152.149 116.955 249.646 116.955C347.144 116.955 426.183 196.104 426.183 293.741Z" stroke="#6246E5"/>
<path d="M461.01 280.456C461.01 387.724 374.175 474.68 267.061 474.68C159.946 474.68 73.1115 387.723 73.1113 280.456C73.1113 173.188 159.946 86.2316 267.061 86.2314C374.175 86.2314 461.01 173.188 461.01 280.456Z" stroke="#6246E5"/>
</g>
</g>
<defs>
<linearGradient id="paint0_linear_3451_750" x1="694.035" y1="13.4669" x2="445.704" y2="484.066" gradientUnits="userSpaceOnUse">
<stop stop-color="#747DEF"/>
<stop offset="1" stop-color="#5E3BE1"/>
</linearGradient>
</defs>
</svg>
