<svg width="24" height="24" viewBox="0 0 24 24" fill="none" xmlns="http://www.w3.org/2000/svg">
<mask id="mask0_1_95" style="mask-type:luminance" maskUnits="userSpaceOnUse" x="0" y="0" width="24" height="24">
<path d="M23.4545 9.81818H12.2727V14.4545H18.7091C18.1091 17.4 15.6 19.0909 12.2727 19.0909C8.34543 19.0909 5.1818 15.9273 5.1818 12C5.1818 8.07273 8.34543 4.90909 12.2727 4.90909C13.9636 4.90909 15.4909 5.5091 16.6909 6.49092L20.1818 3C18.0545 1.14545 15.3273 0 12.2727 0C5.61816 0 0.272705 5.34545 0.272705 12C0.272705 18.6545 5.61816 24 12.2727 24C18.2727 24 23.7273 19.6364 23.7273 12C23.7273 11.2909 23.6182 10.5273 23.4545 9.81818Z" fill="white"/>
</mask>
<g mask="url(#mask0_1_95)">
<path d="M-0.818665 19.0904V4.90863L8.45406 11.9995L-0.818665 19.0904Z" fill="#FBBC05"/>
</g>
<mask id="mask1_1_95" style="mask-type:luminance" maskUnits="userSpaceOnUse" x="0" y="0" width="24" height="24">
<path d="M23.4545 9.81818H12.2727V14.4545H18.7091C18.1091 17.4 15.6 19.0909 12.2727 19.0909C8.34543 19.0909 5.1818 15.9273 5.1818 12C5.1818 8.07273 8.34543 4.90909 12.2727 4.90909C13.9636 4.90909 15.4909 5.5091 16.6909 6.49092L20.1818 3C18.0545 1.14545 15.3273 0 12.2727 0C5.61816 0 0.272705 5.34545 0.272705 12C0.272705 18.6545 5.61816 24 12.2727 24C18.2727 24 23.7273 19.6364 23.7273 12C23.7273 11.2909 23.6182 10.5273 23.4545 9.81818Z" fill="white"/>
</mask>
<g mask="url(#mask1_1_95)">
<path d="M-0.818665 4.90863L8.45406 11.9995L12.2722 8.67228L25.3631 6.54499V-1.09137H-0.818665V4.90863Z" fill="#EA4335"/>
</g>
<mask id="mask2_1_95" style="mask-type:luminance" maskUnits="userSpaceOnUse" x="0" y="0" width="24" height="24">
<path d="M23.4545 9.81818H12.2727V14.4545H18.7091C18.1091 17.4 15.6 19.0909 12.2727 19.0909C8.34543 19.0909 5.1818 15.9273 5.1818 12C5.1818 8.07273 8.34543 4.90909 12.2727 4.90909C13.9636 4.90909 15.4909 5.5091 16.6909 6.49092L20.1818 3C18.0545 1.14545 15.3273 0 12.2727 0C5.61816 0 0.272705 5.34545 0.272705 12C0.272705 18.6545 5.61816 24 12.2727 24C18.2727 24 23.7273 19.6364 23.7273 12C23.7273 11.2909 23.6182 10.5273 23.4545 9.81818Z" fill="white"/>
</mask>
<g mask="url(#mask2_1_95)">
<path d="M-0.818665 19.0904L15.545 6.54499L19.8541 7.09045L25.3631 -1.09137V25.0904H-0.818665V19.0904Z" fill="#34A853"/>
</g>
<mask id="mask3_1_95" style="mask-type:luminance" maskUnits="userSpaceOnUse" x="0" y="0" width="24" height="24">
<path d="M23.4545 9.81818H12.2727V14.4545H18.7091C18.1091 17.4 15.6 19.0909 12.2727 19.0909C8.34543 19.0909 5.1818 15.9273 5.1818 12C5.1818 8.07273 8.34543 4.90909 12.2727 4.90909C13.9636 4.90909 15.4909 5.5091 16.6909 6.49092L20.1818 3C18.0545 1.14545 15.3273 0 12.2727 0C5.61816 0 0.272705 5.34545 0.272705 12C0.272705 18.6545 5.61816 24 12.2727 24C18.2727 24 23.7273 19.6364 23.7273 12C23.7273 11.2909 23.6182 10.5273 23.4545 9.81818Z" fill="white"/>
</mask>
<g mask="url(#mask3_1_95)">
<path d="M25.3636 25.0904L8.45452 11.9995L6.27271 10.3632L25.3636 4.90863V25.0904Z" fill="#4285F4"/>
</g>
</svg>
